<svg width="102" height="102" viewBox="0 0 102 102" fill="none" xmlns="http://www.w3.org/2000/svg">
<path d="M15.5 1V0.5H15H5.5H5H1H0.500001V1V5V5.5L0.5 15V15.5H1H5H5.5V15L5.5 5.5H15H15.5V5V1Z" stroke="white"/>
<path d="M0.999999 86.5L0.499999 86.5L0.499999 87L0.5 96.5L0.5 97L0.5 101L0.5 101.5L1 101.5L5 101.5L5.5 101.5L15 101.5L15.5 101.5L15.5 101L15.5 97L15.5 96.5L15 96.5L5.5 96.5L5.5 87L5.5 86.5L5 86.5L0.999999 86.5Z" stroke="white"/>
<path d="M86.5 101L86.5 101.5L87 101.5L96.5 101.5L97 101.5L101 101.5L101.5 101.5L101.5 101L101.5 97L101.5 96.5L101.5 87L101.5 86.5L101 86.5L97 86.5L96.5 86.5L96.5 87L96.5 96.5L87 96.5L86.5 96.5L86.5 97L86.5 101Z" stroke="white"/>
<path d="M101 15.5L101.5 15.5L101.5 15L101.5 5.5L101.5 5L101.5 1L101.5 0.500001L101 0.500001L97 0.5L96.5 0.5L87 0.499999L86.5 0.499999L86.5 0.999999L86.5 5L86.5 5.5L87 5.5L96.5 5.5L96.5 15L96.5 15.5L97 15.5L101 15.5Z" stroke="white"/>
</svg>
