<svg width="52" height="58" viewBox="0 0 52 58" fill="none" xmlns="http://www.w3.org/2000/svg">
<path d="M26 0H24V2H26V0Z" fill="white"/>
<path d="M28 0H26V2H28V0Z" fill="white"/>
<path d="M24 2H22V4H24V2Z" fill="white"/>
<path d="M26 2H24V4H26V2Z" fill="white"/>
<path d="M28 2H26V4H28V2Z" fill="white"/>
<path d="M30 2H28V4H30V2Z" fill="white"/>
<path d="M20 4H18V6H20V4Z" fill="white"/>
<path d="M22 4H20V6H22V4Z" fill="white"/>
<path d="M24 4H22V6H24V4Z" fill="white"/>
<path d="M30 4H28V6H30V4Z" fill="white"/>
<path d="M32 4H30V6H32V4Z" fill="white"/>
<path d="M34 4H32V6H34V4Z" fill="white"/>
<path d="M16 6H14V8H16V6Z" fill="white"/>
<path d="M18 6H16V8H18V6Z" fill="white"/>
<path d="M36 6H34V8H36V6Z" fill="white"/>
<path d="M38 6H36V8H38V6Z" fill="white"/>
<path d="M14 8H12V10H14V8Z" fill="white"/>
<path d="M40 8H38V10H40V8Z" fill="white"/>
<path d="M10 12H8V14H10V12Z" fill="white"/>
<path d="M44 12H42V14H44V12Z" fill="white"/>
<path d="M8 14H6V16H8V14Z" fill="white"/>
<path d="M22 14H20V16H22V14Z" fill="white"/>
<path d="M24 14H22V16H24V14Z" fill="white"/>
<path d="M26 14H24V16H26V14Z" fill="white"/>
<path d="M28 14H26V16H28V14Z" fill="white"/>
<path d="M30 14H28V16H30V14Z" fill="white"/>
<path d="M32 14H30V16H32V14Z" fill="white"/>
<path d="M46 14H44V16H46V14Z" fill="white"/>
<path d="M8 16H6V18H8V16Z" fill="white"/>
<path d="M20 16H18V18H20V16Z" fill="white"/>
<path d="M22 16H20V18H22V16Z" fill="white"/>
<path d="M24 16H22V18H24V16Z" fill="white"/>
<path d="M26 16H24V18H26V16Z" fill="white"/>
<path d="M28 16H26V18H28V16Z" fill="white"/>
<path d="M30 16H28V18H30V16Z" fill="white"/>
<path d="M32 16H30V18H32V16Z" fill="white"/>
<path d="M34 16H32V18H34V16Z" fill="white"/>
<path d="M46 16H44V18H46V16Z" fill="white"/>
<path d="M6 18H4V20H6V18Z" fill="white"/>
<path d="M18 18H16V20H18V18Z" fill="white"/>
<path d="M20 18H18V20H20V18Z" fill="white"/>
<path d="M22 18H20V20H22V18Z" fill="white"/>
<path d="M24 18H22V20H24V18Z" fill="white"/>
<path d="M26 18H24V20H26V18Z" fill="white"/>
<path d="M28 18H26V20H28V18Z" fill="white"/>
<path d="M30 18H28V20H30V18Z" fill="white"/>
<path d="M32 18H30V20H32V18Z" fill="white"/>
<path d="M34 18H32V20H34V18Z" fill="white"/>
<path d="M36 18H34V20H36V18Z" fill="white"/>
<path d="M48 18H46V20H48V18Z" fill="white"/>
<path d="M6 20H4V22H6V20Z" fill="white"/>
<path d="M16 20H14V22H16V20Z" fill="white"/>
<path d="M18 20H16V22H18V20Z" fill="white"/>
<path d="M20 20H18V22H20V20Z" fill="white"/>
<path d="M22 20H20V22H22V20Z" fill="white"/>
<path d="M24 20H22V22H24V20Z" fill="white"/>
<path d="M26 20H24V22H26V20Z" fill="white"/>
<path d="M28 20H26V22H28V20Z" fill="white"/>
<path d="M30 20H28V22H30V20Z" fill="white"/>
<path d="M32 20H30V22H32V20Z" fill="white"/>
<path d="M34 20H32V22H34V20Z" fill="white"/>
<path d="M36 20H34V22H36V20Z" fill="white"/>
<path d="M38 20H36V22H38V20Z" fill="white"/>
<path d="M48 20H46V22H48V20Z" fill="white"/>
<path d="M4 22H2V24H4V22Z" fill="white"/>
<path d="M6 22H4V24H6V22Z" fill="white"/>
<path d="M16 22H14V24H16V22Z" fill="white"/>
<path d="M18 22H16V24H18V22Z" fill="white"/>
<path d="M20 22H18V24H20V22Z" fill="white"/>
<path d="M22 22H20V24H22V22Z" fill="white"/>
<path d="M24 22H22V24H24V22Z" fill="white"/>
<path d="M26 22H24V24H26V22Z" fill="white"/>
<path d="M28 22H26V24H28V22Z" fill="white"/>
<path d="M30 22H28V24H30V22Z" fill="white"/>
<path d="M32 22H30V24H32V22Z" fill="white"/>
<path d="M34 22H32V24H34V22Z" fill="white"/>
<path d="M36 22H34V24H36V22Z" fill="white"/>
<path d="M38 22H36V24H38V22Z" fill="white"/>
<path d="M48 22H46V24H48V22Z" fill="white"/>
<path d="M50 22H48V24H50V22Z" fill="white"/>
<path d="M2 24H0V26H2V24Z" fill="white"/>
<path d="M4 24H2V26H4V24Z" fill="white"/>
<path d="M16 24H14V26H16V24Z" fill="white"/>
<path d="M18 24H16V26H18V24Z" fill="white"/>
<path d="M20 24H18V26H20V24Z" fill="white"/>
<path d="M22 24H20V26H22V24Z" fill="white"/>
<path d="M24 24H22V26H24V24Z" fill="white"/>
<path d="M26 24H24V26H26V24Z" fill="white"/>
<path d="M28 24H26V26H28V24Z" fill="white"/>
<path d="M30 24H28V26H30V24Z" fill="white"/>
<path d="M32 24H30V26H32V24Z" fill="white"/>
<path d="M34 24H32V26H34V24Z" fill="white"/>
<path d="M36 24H34V26H36V24Z" fill="white"/>
<path d="M38 24H36V26H38V24Z" fill="white"/>
<path d="M50 24H48V26H50V24Z" fill="white"/>
<path d="M52 24H50V26H52V24Z" fill="white"/>
<path d="M2 26H0V28H2V26Z" fill="white"/>
<path d="M4 26H2V28H4V26Z" fill="white"/>
<path d="M16 26H14V28H16V26Z" fill="white"/>
<path d="M18 26H16V28H18V26Z" fill="white"/>
<path d="M24 26H22V28H24V26Z" fill="white"/>
<path d="M26 26H24V28H26V26Z" fill="white"/>
<path d="M28 26H26V28H28V26Z" fill="white"/>
<path d="M30 26H28V28H30V26Z" fill="white"/>
<path d="M36 26H34V28H36V26Z" fill="white"/>
<path d="M38 26H36V28H38V26Z" fill="white"/>
<path d="M50 26H48V28H50V26Z" fill="white"/>
<path d="M52 26H50V28H52V26Z" fill="white"/>
<path d="M4 28H2V30H4V28Z" fill="white"/>
<path d="M6 28H4V30H6V28Z" fill="white"/>
<path d="M16 28H14V30H16V28Z" fill="white"/>
<path d="M18 28H16V30H18V28Z" fill="white"/>
<path d="M20 28H18V30H20V28Z" fill="white"/>
<path d="M22 28H20V30H22V28Z" fill="white"/>
<path d="M24 28H22V30H24V28Z" fill="white"/>
<path d="M26 28H24V30H26V28Z" fill="white"/>
<path d="M28 28H26V30H28V28Z" fill="white"/>
<path d="M30 28H28V30H30V28Z" fill="white"/>
<path d="M32 28H30V30H32V28Z" fill="white"/>
<path d="M34 28H32V30H34V28Z" fill="white"/>
<path d="M36 28H34V30H36V28Z" fill="white"/>
<path d="M38 28H36V30H38V28Z" fill="white"/>
<path d="M48 28H46V30H48V28Z" fill="white"/>
<path d="M50 28H48V30H50V28Z" fill="white"/>
<path d="M6 30H4V32H6V30Z" fill="white"/>
<path d="M16 30H14V32H16V30Z" fill="white"/>
<path d="M18 30H16V32H18V30Z" fill="white"/>
<path d="M20 30H18V32H20V30Z" fill="white"/>
<path d="M22 30H20V32H22V30Z" fill="white"/>
<path d="M24 30H22V32H24V30Z" fill="white"/>
<path d="M26 30H24V32H26V30Z" fill="white"/>
<path d="M28 30H26V32H28V30Z" fill="white"/>
<path d="M30 30H28V32H30V30Z" fill="white"/>
<path d="M32 30H30V32H32V30Z" fill="white"/>
<path d="M34 30H32V32H34V30Z" fill="white"/>
<path d="M36 30H34V32H36V30Z" fill="white"/>
<path d="M38 30H36V32H38V30Z" fill="white"/>
<path d="M48 30H46V32H48V30Z" fill="white"/>
<path d="M6 32H4V34H6V32Z" fill="white"/>
<path d="M18 32H16V34H18V32Z" fill="white"/>
<path d="M20 32H18V34H20V32Z" fill="white"/>
<path d="M22 32H20V34H22V32Z" fill="white"/>
<path d="M24 32H22V34H24V32Z" fill="white"/>
<path d="M26 32H24V34H26V32Z" fill="white"/>
<path d="M28 32H26V34H28V32Z" fill="white"/>
<path d="M30 32H28V34H30V32Z" fill="white"/>
<path d="M32 32H30V34H32V32Z" fill="white"/>
<path d="M34 32H32V34H34V32Z" fill="white"/>
<path d="M36 32H34V34H36V32Z" fill="white"/>
<path d="M48 32H46V34H48V32Z" fill="white"/>
<path d="M8 34H6V36H8V34Z" fill="white"/>
<path d="M20 34H18V36H20V34Z" fill="white"/>
<path d="M22 34H20V36H22V34Z" fill="white"/>
<path d="M24 34H22V36H24V34Z" fill="white"/>
<path d="M26 34H24V36H26V34Z" fill="white"/>
<path d="M28 34H26V36H28V34Z" fill="white"/>
<path d="M30 34H28V36H30V34Z" fill="white"/>
<path d="M32 34H30V36H32V34Z" fill="white"/>
<path d="M34 34H32V36H34V34Z" fill="white"/>
<path d="M46 34H44V36H46V34Z" fill="white"/>
<path d="M8 36H6V38H8V36Z" fill="white"/>
<path d="M22 36H20V38H22V36Z" fill="white"/>
<path d="M24 36H22V38H24V36Z" fill="white"/>
<path d="M26 36H24V38H26V36Z" fill="white"/>
<path d="M28 36H26V38H28V36Z" fill="white"/>
<path d="M30 36H28V38H30V36Z" fill="white"/>
<path d="M32 36H30V38H32V36Z" fill="white"/>
<path d="M46 36H44V38H46V36Z" fill="white"/>
<path d="M10 38H8V40H10V38Z" fill="white"/>
<path d="M44 38H42V40H44V38Z" fill="white"/>
<path d="M18 40H16V42H18V40Z" fill="white"/>
<path d="M20 40H18V42H20V40Z" fill="white"/>
<path d="M22 40H20V42H22V40Z" fill="white"/>
<path d="M24 40H22V42H24V40Z" fill="white"/>
<path d="M26 40H24V42H26V40Z" fill="white"/>
<path d="M28 40H26V42H28V40Z" fill="white"/>
<path d="M30 40H28V42H30V40Z" fill="white"/>
<path d="M32 40H30V42H32V40Z" fill="white"/>
<path d="M34 40H32V42H34V40Z" fill="white"/>
<path d="M36 40H34V42H36V40Z" fill="white"/>
<path d="M14 42H12V44H14V42Z" fill="white"/>
<path d="M16 42H14V44H16V42Z" fill="white"/>
<path d="M18 42H16V44H18V42Z" fill="white"/>
<path d="M20 42H18V44H20V42Z" fill="white"/>
<path d="M22 42H20V44H22V42Z" fill="white"/>
<path d="M24 42H22V44H24V42Z" fill="white"/>
<path d="M26 42H24V44H26V42Z" fill="white"/>
<path d="M28 42H26V44H28V42Z" fill="white"/>
<path d="M30 42H28V44H30V42Z" fill="white"/>
<path d="M32 42H30V44H32V42Z" fill="white"/>
<path d="M34 42H32V44H34V42Z" fill="white"/>
<path d="M36 42H34V44H36V42Z" fill="white"/>
<path d="M38 42H36V44H38V42Z" fill="white"/>
<path d="M40 42H38V44H40V42Z" fill="white"/>
<path d="M14 44H12V46H14V44Z" fill="white"/>
<path d="M16 44H14V46H16V44Z" fill="white"/>
<path d="M18 44H16V46H18V44Z" fill="white"/>
<path d="M20 44H18V46H20V44Z" fill="white"/>
<path d="M22 44H20V46H22V44Z" fill="white"/>
<path d="M24 44H22V46H24V44Z" fill="white"/>
<path d="M26 44H24V46H26V44Z" fill="white"/>
<path d="M28 44H26V46H28V44Z" fill="white"/>
<path d="M30 44H28V46H30V44Z" fill="white"/>
<path d="M32 44H30V46H32V44Z" fill="white"/>
<path d="M34 44H32V46H34V44Z" fill="white"/>
<path d="M36 44H34V46H36V44Z" fill="white"/>
<path d="M38 44H36V46H38V44Z" fill="white"/>
<path d="M40 44H38V46H40V44Z" fill="white"/>
<path d="M12 46H10V48H12V46Z" fill="white"/>
<path d="M14 46H12V48H14V46Z" fill="white"/>
<path d="M16 46H14V48H16V46Z" fill="white"/>
<path d="M18 46H16V48H18V46Z" fill="white"/>
<path d="M20 46H18V48H20V46Z" fill="white"/>
<path d="M22 46H20V48H22V46Z" fill="white"/>
<path d="M24 46H22V48H24V46Z" fill="white"/>
<path d="M26 46H24V48H26V46Z" fill="white"/>
<path d="M28 46H26V48H28V46Z" fill="white"/>
<path d="M30 46H28V48H30V46Z" fill="white"/>
<path d="M32 46H30V48H32V46Z" fill="white"/>
<path d="M34 46H32V48H34V46Z" fill="white"/>
<path d="M36 46H34V48H36V46Z" fill="white"/>
<path d="M38 46H36V48H38V46Z" fill="white"/>
<path d="M40 46H38V48H40V46Z" fill="white"/>
<path d="M42 46H40V48H42V46Z" fill="white"/>
<path d="M12 48H10V50H12V48Z" fill="white"/>
<path d="M14 48H12V50H14V48Z" fill="white"/>
<path d="M16 48H14V50H16V48Z" fill="white"/>
<path d="M18 48H16V50H18V48Z" fill="white"/>
<path d="M20 48H18V50H20V48Z" fill="white"/>
<path d="M22 48H20V50H22V48Z" fill="white"/>
<path d="M24 48H22V50H24V48Z" fill="white"/>
<path d="M26 48H24V50H26V48Z" fill="white"/>
<path d="M28 48H26V50H28V48Z" fill="white"/>
<path d="M30 48H28V50H30V48Z" fill="white"/>
<path d="M32 48H30V50H32V48Z" fill="white"/>
<path d="M34 48H32V50H34V48Z" fill="white"/>
<path d="M36 48H34V50H36V48Z" fill="white"/>
<path d="M38 48H36V50H38V48Z" fill="white"/>
<path d="M40 48H38V50H40V48Z" fill="white"/>
<path d="M42 48H40V50H42V48Z" fill="white"/>
<path d="M12 50H10V52H12V50Z" fill="white"/>
<path d="M14 50H12V52H14V50Z" fill="white"/>
<path d="M16 50H14V52H16V50Z" fill="white"/>
<path d="M18 50H16V52H18V50Z" fill="white"/>
<path d="M20 50H18V52H20V50Z" fill="white"/>
<path d="M22 50H20V52H22V50Z" fill="white"/>
<path d="M24 50H22V52H24V50Z" fill="white"/>
<path d="M26 50H24V52H26V50Z" fill="white"/>
<path d="M28 50H26V52H28V50Z" fill="white"/>
<path d="M30 50H28V52H30V50Z" fill="white"/>
<path d="M32 50H30V52H32V50Z" fill="white"/>
<path d="M34 50H32V52H34V50Z" fill="white"/>
<path d="M36 50H34V52H36V50Z" fill="white"/>
<path d="M38 50H36V52H38V50Z" fill="white"/>
<path d="M40 50H38V52H40V50Z" fill="white"/>
<path d="M42 50H40V52H42V50Z" fill="white"/>
<path d="M12 52H10V54H12V52Z" fill="white"/>
<path d="M14 52H12V54H14V52Z" fill="white"/>
<path d="M16 52H14V54H16V52Z" fill="white"/>
<path d="M18 52H16V54H18V52Z" fill="white"/>
<path d="M20 52H18V54H20V52Z" fill="white"/>
<path d="M22 52H20V54H22V52Z" fill="white"/>
<path d="M24 52H22V54H24V52Z" fill="white"/>
<path d="M26 52H24V54H26V52Z" fill="white"/>
<path d="M28 52H26V54H28V52Z" fill="white"/>
<path d="M30 52H28V54H30V52Z" fill="white"/>
<path d="M32 52H30V54H32V52Z" fill="white"/>
<path d="M34 52H32V54H34V52Z" fill="white"/>
<path d="M36 52H34V54H36V52Z" fill="white"/>
<path d="M38 52H36V54H38V52Z" fill="white"/>
<path d="M40 52H38V54H40V52Z" fill="white"/>
<path d="M42 52H40V54H42V52Z" fill="white"/>
<path d="M12 54H10V56H12V54Z" fill="white"/>
<path d="M14 54H12V56H14V54Z" fill="white"/>
<path d="M16 54H14V56H16V54Z" fill="white"/>
<path d="M18 54H16V56H18V54Z" fill="white"/>
<path d="M20 54H18V56H20V54Z" fill="white"/>
<path d="M22 54H20V56H22V54Z" fill="white"/>
<path d="M24 54H22V56H24V54Z" fill="white"/>
<path d="M26 54H24V56H26V54Z" fill="white"/>
<path d="M28 54H26V56H28V54Z" fill="white"/>
<path d="M30 54H28V56H30V54Z" fill="white"/>
<path d="M32 54H30V56H32V54Z" fill="white"/>
<path d="M34 54H32V56H34V54Z" fill="white"/>
<path d="M36 54H34V56H36V54Z" fill="white"/>
<path d="M38 54H36V56H38V54Z" fill="white"/>
<path d="M40 54H38V56H40V54Z" fill="white"/>
<path d="M42 54H40V56H42V54Z" fill="white"/>
<path d="M12 56H10V58H12V56Z" fill="white"/>
<path d="M14 56H12V58H14V56Z" fill="white"/>
<path d="M16 56H14V58H16V56Z" fill="white"/>
<path d="M18 56H16V58H18V56Z" fill="white"/>
<path d="M20 56H18V58H20V56Z" fill="white"/>
<path d="M22 56H20V58H22V56Z" fill="white"/>
<path d="M24 56H22V58H24V56Z" fill="white"/>
<path d="M26 56H24V58H26V56Z" fill="white"/>
<path d="M28 56H26V58H28V56Z" fill="white"/>
<path d="M30 56H28V58H30V56Z" fill="white"/>
<path d="M32 56H30V58H32V56Z" fill="white"/>
<path d="M34 56H32V58H34V56Z" fill="white"/>
<path d="M36 56H34V58H36V56Z" fill="white"/>
<path d="M38 56H36V58H38V56Z" fill="white"/>
<path d="M40 56H38V58H40V56Z" fill="white"/>
<path d="M42 56H40V58H42V56Z" fill="white"/>
</svg>
