<svg width="100" height="100" viewBox="0 0 100 100" fill="none" xmlns="http://www.w3.org/2000/svg">
<path d="M6.11959e-07 0H14V4H6.11959e-07V0Z" fill="white"/>
<path d="M4 0L4 14H0L6.11959e-07 0H4Z" fill="white"/>
<path d="M0 100L-6.11959e-07 86L4 86L4 100L0 100Z" fill="white"/>
<path d="M-1.74846e-07 96L14 96L14 100L0 100L-1.74846e-07 96Z" fill="white"/>
<path d="M100 100L86 100L86 96L100 96L100 100Z" fill="white"/>
<path d="M96 100L96 86L100 86L100 100L96 100Z" fill="white"/>
<path d="M100 6.11959e-07L100 14L96 14L96 4.37114e-07L100 6.11959e-07Z" fill="white"/>
<path d="M100 4L86 4L86 -6.11959e-07L100 6.11959e-07L100 4Z" fill="white"/>
</svg>
