<svg width="0" height="0" class="hidden">
  <symbol id="potions" fill="none" xmlns="http://www.w3.org/2000/svg" viewBox="0 0 47 47">
    <path d="M26.1111 5.22222H31.3333V26.1111H26.1111V5.22222Z" fill="white"></path>
    <path d="M15.6667 5.22222H20.8889V26.1111H15.6667V5.22222Z" fill="white"></path>
    <path d="M10.4444 0H36.5556V5.22222H10.4444V0Z" fill="white"></path>
    <path d="M10.4444 26.1111H15.6667V31.3333H10.4444V26.1111Z" fill="white"></path>
    <path d="M5.22222 31.3333H10.4444V36.5556H5.22222V31.3333Z" fill="white"></path>
    <path d="M36.5556 31.3333H31.3333V26.1111H36.5556V31.3333Z" fill="white"></path>
    <path d="M31.3427 36.5556H26.1204V31.3333H31.3427V36.5556Z" fill="white"></path>
    <path d="M41.7778 36.5556H36.5556V31.3333H41.7778V36.5556Z" fill="white"></path>
    <path d="M41.7778 36.5556V41.7778H5.22222L5.22222 36.5556H0V47H47V36.5556H41.7778Z" fill="white"></path>
  </symbol>
  <symbol id="paw" fill="none" xmlns="http://www.w3.org/2000/svg" viewBox="0 0 46 42">
    <path d="M17.6923 0H14.1538V3.5H17.6923V0Z" fill="white"></path>
    <path d="M31.8462 0H28.3077V3.5H31.8462V0Z" fill="white"></path>
    <path d="M14.1538 3.5H10.6154V7H14.1538V3.5Z" fill="white"></path>
    <path d="M17.6923 3.5H14.1538V7H17.6923V3.5Z" fill="white"></path>
    <path d="M31.8462 3.5H28.3077V7H31.8462V3.5Z" fill="white"></path>
    <path d="M35.3846 3.5H31.8462V7H35.3846V3.5Z" fill="white"></path>
    <path d="M14.1538 7H10.6154V10.5H14.1538V7Z" fill="white"></path>
    <path d="M17.6923 7H14.1538V10.5H17.6923V7Z" fill="white"></path>
    <path d="M21.2308 7H17.6923V10.5H21.2308V7Z" fill="white"></path>
    <path d="M28.3077 7H24.7692V10.5H28.3077V7Z" fill="white"></path>
    <path d="M31.8462 7H28.3077V10.5H31.8462V7Z" fill="white"></path>
    <path d="M35.3846 7H31.8462V10.5H35.3846V7Z" fill="white"></path>
    <path d="M7.07692 10.5H3.53846V14H7.07692V10.5Z" fill="white"></path>
    <path d="M14.1538 10.5H10.6154V14H14.1538V10.5Z" fill="white"></path>
    <path d="M17.6923 10.5H14.1538V14H17.6923V10.5Z" fill="white"></path>
    <path d="M21.2308 10.5H17.6923V14H21.2308V10.5Z" fill="white"></path>
    <path d="M28.3077 10.5H24.7692V14H28.3077V10.5Z" fill="white"></path>
    <path d="M31.8462 10.5H28.3077V14H31.8462V10.5Z" fill="white"></path>
    <path d="M35.3846 10.5H31.8462V14H35.3846V10.5Z" fill="white"></path>
    <path d="M42.4615 10.5H38.9231V14H42.4615V10.5Z" fill="white"></path>
    <path d="M3.53846 14H0V17.5H3.53846V14Z" fill="white"></path>
    <path d="M7.07692 14H3.53846V17.5H7.07692V14Z" fill="white"></path>
    <path d="M17.6923 14H14.1538V17.5H17.6923V14Z" fill="white"></path>
    <path d="M21.2308 14H17.6923V17.5H21.2308V14Z" fill="white"></path>
    <path d="M28.3077 14H24.7692V17.5H28.3077V14Z" fill="white"></path>
    <path d="M31.8462 14H28.3077V17.5H31.8462V14Z" fill="white"></path>
    <path d="M42.4615 14H38.9231V17.5H42.4615V14Z" fill="white"></path>
    <path d="M46 14H42.4615V17.5H46V14Z" fill="white"></path>
    <path d="M3.53846 17.5H0V21H3.53846V17.5Z" fill="white"></path>
    <path d="M7.07692 17.5H3.53846V21H7.07692V17.5Z" fill="white"></path>
    <path d="M10.6154 17.5H7.07692V21H10.6154V17.5Z" fill="white"></path>
    <path d="M38.9231 17.5H35.3846V21H38.9231V17.5Z" fill="white"></path>
    <path d="M42.4615 17.5H38.9231V21H42.4615V17.5Z" fill="white"></path>
    <path d="M46 17.5H42.4615V21H46V17.5Z" fill="white"></path>
    <path d="M7.07692 21H3.53846V24.5H7.07692V21Z" fill="white"></path>
    <path d="M17.6923 21H14.1538V24.5H17.6923V21Z" fill="white"></path>
    <path d="M21.2308 21H17.6923V24.5H21.2308V21Z" fill="white"></path>
    <path d="M24.7692 21H21.2308V24.5H24.7692V21Z" fill="white"></path>
    <path d="M28.3077 21H24.7692V24.5H28.3077V21Z" fill="white"></path>
    <path d="M31.8462 21H28.3077V24.5H31.8462V21Z" fill="white"></path>
    <path d="M42.4615 21H38.9231V24.5H42.4615V21Z" fill="white"></path>
    <path d="M14.1538 24.5H10.6154V28H14.1538V24.5Z" fill="white"></path>
    <path d="M17.6923 24.5H14.1538V28H17.6923V24.5Z" fill="white"></path>
    <path d="M21.2308 24.5H17.6923V28H21.2308V24.5Z" fill="white"></path>
    <path d="M24.7692 24.5H21.2308V28H24.7692V24.5Z" fill="white"></path>
    <path d="M28.3077 24.5H24.7692V28H28.3077V24.5Z" fill="white"></path>
    <path d="M31.8462 24.5H28.3077V28H31.8462V24.5Z" fill="white"></path>
    <path d="M35.3846 24.5H31.8462V28H35.3846V24.5Z" fill="white"></path>
    <path d="M10.6154 28H7.07692V31.5H10.6154V28Z" fill="white"></path>
    <path d="M14.1538 28H10.6154V31.5H14.1538V28Z" fill="white"></path>
    <path d="M17.6923 28H14.1538V31.5H17.6923V28Z" fill="white"></path>
    <path d="M21.2308 28H17.6923V31.5H21.2308V28Z" fill="white"></path>
    <path d="M24.7692 28H21.2308V31.5H24.7692V28Z" fill="white"></path>
    <path d="M28.3077 28H24.7692V31.5H28.3077V28Z" fill="white"></path>
    <path d="M31.8462 28H28.3077V31.5H31.8462V28Z" fill="white"></path>
    <path d="M35.3846 28H31.8462V31.5H35.3846V28Z" fill="white"></path>
    <path d="M38.9231 28H35.3846V31.5H38.9231V28Z" fill="white"></path>
    <path d="M10.6154 31.5H7.07692V35H10.6154V31.5Z" fill="white"></path>
    <path d="M14.1538 31.5H10.6154V35H14.1538V31.5Z" fill="white"></path>
    <path d="M17.6923 31.5H14.1538V35H17.6923V31.5Z" fill="white"></path>
    <path d="M21.2308 31.5H17.6923V35H21.2308V31.5Z" fill="white"></path>
    <path d="M24.7692 31.5H21.2308V35H24.7692V31.5Z" fill="white"></path>
    <path d="M28.3077 31.5H24.7692V35H28.3077V31.5Z" fill="white"></path>
    <path d="M31.8462 31.5H28.3077V35H31.8462V31.5Z" fill="white"></path>
    <path d="M35.3846 31.5H31.8462V35H35.3846V31.5Z" fill="white"></path>
    <path d="M38.9231 31.5H35.3846V35H38.9231V31.5Z" fill="white"></path>
    <path d="M10.6154 35H7.07692V38.5H10.6154V35Z" fill="white"></path>
    <path d="M14.1538 35H10.6154V38.5H14.1538V35Z" fill="white"></path>
    <path d="M17.6923 35H14.1538V38.5H17.6923V35Z" fill="white"></path>
    <path d="M21.2308 35H17.6923V38.5H21.2308V35Z" fill="white"></path>
    <path d="M24.7692 35H21.2308V38.5H24.7692V35Z" fill="white"></path>
    <path d="M28.3077 35H24.7692V38.5H28.3077V35Z" fill="white"></path>
    <path d="M31.8462 35H28.3077V38.5H31.8462V35Z" fill="white"></path>
    <path d="M35.3846 35H31.8462V38.5H35.3846V35Z" fill="white"></path>
    <path d="M38.9231 35H35.3846V38.5H38.9231V35Z" fill="white"></path>
    <path d="M14.1538 38.5H10.6154V42H14.1538V38.5Z" fill="white"></path>
    <path d="M17.6923 38.5H14.1538V42H17.6923V38.5Z" fill="white"></path>
    <path d="M21.2308 38.5H17.6923V42H21.2308V38.5Z" fill="white"></path>
    <path d="M28.3077 38.5H24.7692V42H28.3077V38.5Z" fill="white"></path>
    <path d="M31.8462 38.5H28.3077V42H31.8462V38.5Z" fill="white"></path>
    <path d="M35.3846 38.5H31.8462V42H35.3846V38.5Z" fill="white"></path>
  </symbol>
  <symbol id="chest" fill="none" xmlns="http://www.w3.org/2000/svg" viewBox="0 0 48 50">
    <path d="M18 0H16V2H18V0Z" fill="white"></path>
    <path d="M20 0H18V2H20V0Z" fill="white"></path>
    <path d="M22 0H20V2H22V0Z" fill="white"></path>
    <path d="M24 0H22V2H24V0Z" fill="white"></path>
    <path d="M26 0H24V2H26V0Z" fill="white"></path>
    <path d="M28 0H26V2H28V0Z" fill="white"></path>
    <path d="M30 0H28V2H30V0Z" fill="white"></path>
    <path d="M32 0H30V2H32V0Z" fill="white"></path>
    <path d="M16 2H14V4H16V2Z" fill="white"></path>
    <path d="M18 2H16V4H18V2Z" fill="white"></path>
    <path d="M20 2H18V4H20V2Z" fill="white"></path>
    <path d="M22 2H20V4H22V2Z" fill="white"></path>
    <path d="M24 2H22V4H24V2Z" fill="white"></path>
    <path d="M26 2H24V4H26V2Z" fill="white"></path>
    <path d="M28 2H26V4H28V2Z" fill="white"></path>
    <path d="M30 2H28V4H30V2Z" fill="white"></path>
    <path d="M32 2H30V4H32V2Z" fill="white"></path>
    <path d="M34 2H32V4H34V2Z" fill="white"></path>
    <path d="M8 4H6V6H8V4Z" fill="white"></path>
    <path d="M10 4H8V6H10V4Z" fill="white"></path>
    <path d="M12 4H10V6H12V4Z" fill="white"></path>
    <path d="M14 4H12V6H14V4Z" fill="white"></path>
    <path d="M16 4H14V6H16V4Z" fill="white"></path>
    <path d="M18 4H16V6H18V4Z" fill="white"></path>
    <path d="M20 4H18V6H20V4Z" fill="white"></path>
    <path d="M22 4H20V6H22V4Z" fill="white"></path>
    <path d="M24 4H22V6H24V4Z" fill="white"></path>
    <path d="M26 4H24V6H26V4Z" fill="white"></path>
    <path d="M28 4H26V6H28V4Z" fill="white"></path>
    <path d="M30 4H28V6H30V4Z" fill="white"></path>
    <path d="M32 4H30V6H32V4Z" fill="white"></path>
    <path d="M34 4H32V6H34V4Z" fill="white"></path>
    <path d="M36 4H34V6H36V4Z" fill="white"></path>
    <path d="M38 4H36V6H38V4Z" fill="white"></path>
    <path d="M40 4H38V6H40V4Z" fill="white"></path>
    <path d="M42 4H40V6H42V4Z" fill="white"></path>
    <path d="M6 6H4V8H6V6Z" fill="white"></path>
    <path d="M8 6H6V8H8V6Z" fill="white"></path>
    <path d="M10 6H8V8H10V6Z" fill="white"></path>
    <path d="M12 6H10V8H12V6Z" fill="white"></path>
    <path d="M14 6H12V8H14V6Z" fill="white"></path>
    <path d="M18 6H16V8H18V6Z" fill="white"></path>
    <path d="M20 6H18V8H20V6Z" fill="white"></path>
    <path d="M22 6H20V8H22V6Z" fill="white"></path>
    <path d="M24 6H22V8H24V6Z" fill="white"></path>
    <path d="M26 6H24V8H26V6Z" fill="white"></path>
    <path d="M28 6H26V8H28V6Z" fill="white"></path>
    <path d="M30 6H28V8H30V6Z" fill="white"></path>
    <path d="M32 6H30V8H32V6Z" fill="white"></path>
    <path d="M36 6H34V8H36V6Z" fill="white"></path>
    <path d="M38 6H36V8H38V6Z" fill="white"></path>
    <path d="M40 6H38V8H40V6Z" fill="white"></path>
    <path d="M42 6H40V8H42V6Z" fill="white"></path>
    <path d="M44 6H42V8H44V6Z" fill="white"></path>
    <path d="M4 8H2V10H4V8Z" fill="white"></path>
    <path d="M6 8H4V10H6V8Z" fill="white"></path>
    <path d="M10 8H8V10H10V8Z" fill="white"></path>
    <path d="M12 8H10V10H12V8Z" fill="white"></path>
    <path d="M14 8H12V10H14V8Z" fill="white"></path>
    <path d="M16 8H14V10H16V8Z" fill="white"></path>
    <path d="M34 8H32V10H34V8Z" fill="white"></path>
    <path d="M36 8H34V10H36V8Z" fill="white"></path>
    <path d="M38 8H36V10H38V8Z" fill="white"></path>
    <path d="M40 8H38V10H40V8Z" fill="white"></path>
    <path d="M44 8H42V10H44V8Z" fill="white"></path>
    <path d="M46 8H44V10H46V8Z" fill="white"></path>
    <path d="M2 10H0V12H2V10Z" fill="white"></path>
    <path d="M4 10H2V12H4V10Z" fill="white"></path>
    <path d="M6 10H4V12H6V10Z" fill="white"></path>
    <path d="M8 10H6V12H8V10Z" fill="white"></path>
    <path d="M12 10H10V12H12V10Z" fill="white"></path>
    <path d="M14 10H12V12H14V10Z" fill="white"></path>
    <path d="M16 10H14V12H16V10Z" fill="white"></path>
    <path d="M18 10H16V12H18V10Z" fill="white"></path>
    <path d="M20 10H18V12H20V10Z" fill="white"></path>
    <path d="M22 10H20V12H22V10Z" fill="white"></path>
    <path d="M24 10H22V12H24V10Z" fill="white"></path>
    <path d="M26 10H24V12H26V10Z" fill="white"></path>
    <path d="M28 10H26V12H28V10Z" fill="white"></path>
    <path d="M30 10H28V12H30V10Z" fill="white"></path>
    <path d="M32 10H30V12H32V10Z" fill="white"></path>
    <path d="M34 10H32V12H34V10Z" fill="white"></path>
    <path d="M36 10H34V12H36V10Z" fill="white"></path>
    <path d="M38 10H36V12H38V10Z" fill="white"></path>
    <path d="M42 10H40V12H42V10Z" fill="white"></path>
    <path d="M44 10H42V12H44V10Z" fill="white"></path>
    <path d="M46 10H44V12H46V10Z" fill="white"></path>
    <path d="M48 10H46V12H48V10Z" fill="white"></path>
    <path d="M2 12H0V14H2V12Z" fill="white"></path>
    <path d="M4 12H2V14H4V12Z" fill="white"></path>
    <path d="M6 12H4V14H6V12Z" fill="white"></path>
    <path d="M8 12H6V14H8V12Z" fill="white"></path>
    <path d="M12 12H10V14H12V12Z" fill="white"></path>
    <path d="M14 12H12V14H14V12Z" fill="white"></path>
    <path d="M16 12H14V14H16V12Z" fill="white"></path>
    <path d="M18 12H16V14H18V12Z" fill="white"></path>
    <path d="M20 12H18V14H20V12Z" fill="white"></path>
    <path d="M22 12H20V14H22V12Z" fill="white"></path>
    <path d="M24 12H22V14H24V12Z" fill="white"></path>
    <path d="M26 12H24V14H26V12Z" fill="white"></path>
    <path d="M28 12H26V14H28V12Z" fill="white"></path>
    <path d="M30 12H28V14H30V12Z" fill="white"></path>
    <path d="M32 12H30V14H32V12Z" fill="white"></path>
    <path d="M34 12H32V14H34V12Z" fill="white"></path>
    <path d="M36 12H34V14H36V12Z" fill="white"></path>
    <path d="M38 12H36V14H38V12Z" fill="white"></path>
    <path d="M42 12H40V14H42V12Z" fill="white"></path>
    <path d="M44 12H42V14H44V12Z" fill="white"></path>
    <path d="M46 12H44V14H46V12Z" fill="white"></path>
    <path d="M48 12H46V14H48V12Z" fill="white"></path>
    <path d="M2 14H0V16H2V14Z" fill="white"></path>
    <path d="M4 14H2V16H4V14Z" fill="white"></path>
    <path d="M6 14H4V16H6V14Z" fill="white"></path>
    <path d="M8 14H6V16H8V14Z" fill="white"></path>
    <path d="M12 14H10V16H12V14Z" fill="white"></path>
    <path d="M14 14H12V16H14V14Z" fill="white"></path>
    <path d="M16 14H14V16H16V14Z" fill="white"></path>
    <path d="M18 14H16V16H18V14Z" fill="white"></path>
    <path d="M20 14H18V16H20V14Z" fill="white"></path>
    <path d="M22 14H20V16H22V14Z" fill="white"></path>
    <path d="M24 14H22V16H24V14Z" fill="white"></path>
    <path d="M26 14H24V16H26V14Z" fill="white"></path>
    <path d="M28 14H26V16H28V14Z" fill="white"></path>
    <path d="M30 14H28V16H30V14Z" fill="white"></path>
    <path d="M32 14H30V16H32V14Z" fill="white"></path>
    <path d="M34 14H32V16H34V14Z" fill="white"></path>
    <path d="M36 14H34V16H36V14Z" fill="white"></path>
    <path d="M38 14H36V16H38V14Z" fill="white"></path>
    <path d="M42 14H40V16H42V14Z" fill="white"></path>
    <path d="M44 14H42V16H44V14Z" fill="white"></path>
    <path d="M46 14H44V16H46V14Z" fill="white"></path>
    <path d="M48 14H46V16H48V14Z" fill="white"></path>
    <path d="M2 16H0V18H2V16Z" fill="white"></path>
    <path d="M4 16H2V18H4V16Z" fill="white"></path>
    <path d="M6 16H4V18H6V16Z" fill="white"></path>
    <path d="M8 16H6V18H8V16Z" fill="white"></path>
    <path d="M12 16H10V18H12V16Z" fill="white"></path>
    <path d="M14 16H12V18H14V16Z" fill="white"></path>
    <path d="M16 16H14V18H16V16Z" fill="white"></path>
    <path d="M18 16H16V18H18V16Z" fill="white"></path>
    <path d="M20 16H18V18H20V16Z" fill="white"></path>
    <path d="M22 16H20V18H22V16Z" fill="white"></path>
    <path d="M24 16H22V18H24V16Z" fill="white"></path>
    <path d="M28 16H26V18H28V16Z" fill="white"></path>
    <path d="M30 16H28V18H30V16Z" fill="white"></path>
    <path d="M32 16H30V18H32V16Z" fill="white"></path>
    <path d="M34 16H32V18H34V16Z" fill="white"></path>
    <path d="M36 16H34V18H36V16Z" fill="white"></path>
    <path d="M38 16H36V18H38V16Z" fill="white"></path>
    <path d="M42 16H40V18H42V16Z" fill="white"></path>
    <path d="M44 16H42V18H44V16Z" fill="white"></path>
    <path d="M46 16H44V18H46V16Z" fill="white"></path>
    <path d="M48 16H46V18H48V16Z" fill="white"></path>
    <path d="M2 18H0V20H2V18Z" fill="white"></path>
    <path d="M4 18H2V20H4V18Z" fill="white"></path>
    <path d="M6 18H4V20H6V18Z" fill="white"></path>
    <path d="M8 18H6V20H8V18Z" fill="white"></path>
    <path d="M12 18H10V20H12V18Z" fill="white"></path>
    <path d="M14 18H12V20H14V18Z" fill="white"></path>
    <path d="M16 18H14V20H16V18Z" fill="white"></path>
    <path d="M18 18H16V20H18V18Z" fill="white"></path>
    <path d="M20 18H18V20H20V18Z" fill="white"></path>
    <path d="M22 18H20V20H22V18Z" fill="white"></path>
    <path d="M24 18H22V20H24V18Z" fill="white"></path>
    <path d="M28 18H26V20H28V18Z" fill="white"></path>
    <path d="M30 18H28V20H30V18Z" fill="white"></path>
    <path d="M32 18H30V20H32V18Z" fill="white"></path>
    <path d="M34 18H32V20H34V18Z" fill="white"></path>
    <path d="M36 18H34V20H36V18Z" fill="white"></path>
    <path d="M38 18H36V20H38V18Z" fill="white"></path>
    <path d="M42 18H40V20H42V18Z" fill="white"></path>
    <path d="M44 18H42V20H44V18Z" fill="white"></path>
    <path d="M46 18H44V20H46V18Z" fill="white"></path>
    <path d="M48 18H46V20H48V18Z" fill="white"></path>
    <path d="M4 20H2V22H4V20Z" fill="white"></path>
    <path d="M6 20H4V22H6V20Z" fill="white"></path>
    <path d="M10 20H8V22H10V20Z" fill="white"></path>
    <path d="M12 20H10V22H12V20Z" fill="white"></path>
    <path d="M14 20H12V22H14V20Z" fill="white"></path>
    <path d="M16 20H14V22H16V20Z" fill="white"></path>
    <path d="M18 20H16V22H18V20Z" fill="white"></path>
    <path d="M20 20H18V22H20V20Z" fill="white"></path>
    <path d="M22 20H20V22H22V20Z" fill="white"></path>
    <path d="M24 20H22V22H24V20Z" fill="white"></path>
    <path d="M28 20H26V22H28V20Z" fill="white"></path>
    <path d="M30 20H28V22H30V20Z" fill="white"></path>
    <path d="M32 20H30V22H32V20Z" fill="white"></path>
    <path d="M34 20H32V22H34V20Z" fill="white"></path>
    <path d="M36 20H34V22H36V20Z" fill="white"></path>
    <path d="M38 20H36V22H38V20Z" fill="white"></path>
    <path d="M40 20H38V22H40V20Z" fill="white"></path>
    <path d="M44 20H42V22H44V20Z" fill="white"></path>
    <path d="M46 20H44V22H46V20Z" fill="white"></path>
    <path d="M6 22H4V24H6V22Z" fill="white"></path>
    <path d="M8 22H6V24H8V22Z" fill="white"></path>
    <path d="M10 22H8V24H10V22Z" fill="white"></path>
    <path d="M12 22H10V24H12V22Z" fill="white"></path>
    <path d="M14 22H12V24H14V22Z" fill="white"></path>
    <path d="M16 22H14V24H16V22Z" fill="white"></path>
    <path d="M18 22H16V24H18V22Z" fill="white"></path>
    <path d="M20 22H18V24H20V22Z" fill="white"></path>
    <path d="M22 22H20V24H22V22Z" fill="white"></path>
    <path d="M24 22H22V24H24V22Z" fill="white"></path>
    <path d="M26 22H24V24H26V22Z" fill="white"></path>
    <path d="M28 22H26V24H28V22Z" fill="white"></path>
    <path d="M30 22H28V24H30V22Z" fill="white"></path>
    <path d="M32 22H30V24H32V22Z" fill="white"></path>
    <path d="M34 22H32V24H34V22Z" fill="white"></path>
    <path d="M36 22H34V24H36V22Z" fill="white"></path>
    <path d="M38 22H36V24H38V22Z" fill="white"></path>
    <path d="M40 22H38V24H40V22Z" fill="white"></path>
    <path d="M42 22H40V24H42V22Z" fill="white"></path>
    <path d="M44 22H42V24H44V22Z" fill="white"></path>
    <path d="M6 24H4V26H6V24Z" fill="white"></path>
    <path d="M8 24H6V26H8V24Z" fill="white"></path>
    <path d="M10 24H8V26H10V24Z" fill="white"></path>
    <path d="M12 24H10V26H12V24Z" fill="white"></path>
    <path d="M14 24H12V26H14V24Z" fill="white"></path>
    <path d="M16 24H14V26H16V24Z" fill="white"></path>
    <path d="M18 24H16V26H18V24Z" fill="white"></path>
    <path d="M20 24H18V26H20V24Z" fill="white"></path>
    <path d="M22 24H20V26H22V24Z" fill="white"></path>
    <path d="M26 24H24V26H26V24Z" fill="white"></path>
    <path d="M30 24H28V26H30V24Z" fill="white"></path>
    <path d="M32 24H30V26H32V24Z" fill="white"></path>
    <path d="M34 24H32V26H34V24Z" fill="white"></path>
    <path d="M36 24H34V26H36V24Z" fill="white"></path>
    <path d="M38 24H36V26H38V24Z" fill="white"></path>
    <path d="M40 24H38V26H40V24Z" fill="white"></path>
    <path d="M42 24H40V26H42V24Z" fill="white"></path>
    <path d="M44 24H42V26H44V24Z" fill="white"></path>
    <path d="M6 26H4V28H6V26Z" fill="white"></path>
    <path d="M8 26H6V28H8V26Z" fill="white"></path>
    <path d="M10 26H8V28H10V26Z" fill="white"></path>
    <path d="M24 26H22V28H24V26Z" fill="white"></path>
    <path d="M26 26H24V28H26V26Z" fill="white"></path>
    <path d="M28 26H26V28H28V26Z" fill="white"></path>
    <path d="M40 26H38V28H40V26Z" fill="white"></path>
    <path d="M42 26H40V28H42V26Z" fill="white"></path>
    <path d="M44 26H42V28H44V26Z" fill="white"></path>
    <path d="M8 28H6V30H8V28Z" fill="white"></path>
    <path d="M10 28H8V30H10V28Z" fill="white"></path>
    <path d="M12 28H10V30H12V28Z" fill="white"></path>
    <path d="M14 28H12V30H14V28Z" fill="white"></path>
    <path d="M16 28H14V30H16V28Z" fill="white"></path>
    <path d="M18 28H16V30H18V28Z" fill="white"></path>
    <path d="M20 28H18V30H20V28Z" fill="white"></path>
    <path d="M22 28H20V30H22V28Z" fill="white"></path>
    <path d="M24 28H22V30H24V28Z" fill="white"></path>
    <path d="M26 28H24V30H26V28Z" fill="white"></path>
    <path d="M28 28H26V30H28V28Z" fill="white"></path>
    <path d="M30 28H28V30H30V28Z" fill="white"></path>
    <path d="M32 28H30V30H32V28Z" fill="white"></path>
    <path d="M34 28H32V30H34V28Z" fill="white"></path>
    <path d="M36 28H34V30H36V28Z" fill="white"></path>
    <path d="M38 28H36V30H38V28Z" fill="white"></path>
    <path d="M40 28H38V30H40V28Z" fill="white"></path>
    <path d="M42 28H40V30H42V28Z" fill="white"></path>
    <path d="M8 30H6V32H8V30Z" fill="white"></path>
    <path d="M10 30H8V32H10V30Z" fill="white"></path>
    <path d="M12 30H10V32H12V30Z" fill="white"></path>
    <path d="M14 30H12V32H14V30Z" fill="white"></path>
    <path d="M16 30H14V32H16V30Z" fill="white"></path>
    <path d="M18 30H16V32H18V30Z" fill="white"></path>
    <path d="M20 30H18V32H20V30Z" fill="white"></path>
    <path d="M22 30H20V32H22V30Z" fill="white"></path>
    <path d="M24 30H22V32H24V30Z" fill="white"></path>
    <path d="M26 30H24V32H26V30Z" fill="white"></path>
    <path d="M28 30H26V32H28V30Z" fill="white"></path>
    <path d="M30 30H28V32H30V30Z" fill="white"></path>
    <path d="M32 30H30V32H32V30Z" fill="white"></path>
    <path d="M34 30H32V32H34V30Z" fill="white"></path>
    <path d="M36 30H34V32H36V30Z" fill="white"></path>
    <path d="M38 30H36V32H38V30Z" fill="white"></path>
    <path d="M40 30H38V32H40V30Z" fill="white"></path>
    <path d="M42 30H40V32H42V30Z" fill="white"></path>
    <path d="M8 32H6V34H8V32Z" fill="white"></path>
    <path d="M10 32H8V34H10V32Z" fill="white"></path>
    <path d="M12 32H10V34H12V32Z" fill="white"></path>
    <path d="M14 32H12V34H14V32Z" fill="white"></path>
    <path d="M16 32H14V34H16V32Z" fill="white"></path>
    <path d="M18 32H16V34H18V32Z" fill="white"></path>
    <path d="M20 32H18V34H20V32Z" fill="white"></path>
    <path d="M22 32H20V34H22V32Z" fill="white"></path>
    <path d="M24 32H22V34H24V32Z" fill="white"></path>
    <path d="M26 32H24V34H26V32Z" fill="white"></path>
    <path d="M28 32H26V34H28V32Z" fill="white"></path>
    <path d="M30 32H28V34H30V32Z" fill="white"></path>
    <path d="M32 32H30V34H32V32Z" fill="white"></path>
    <path d="M34 32H32V34H34V32Z" fill="white"></path>
    <path d="M36 32H34V34H36V32Z" fill="white"></path>
    <path d="M38 32H36V34H38V32Z" fill="white"></path>
    <path d="M40 32H38V34H40V32Z" fill="white"></path>
    <path d="M42 32H40V34H42V32Z" fill="white"></path>
    <path d="M10 34H8V36H10V34Z" fill="white"></path>
    <path d="M12 34H10V36H12V34Z" fill="white"></path>
    <path d="M14 34H12V36H14V34Z" fill="white"></path>
    <path d="M16 34H14V36H16V34Z" fill="white"></path>
    <path d="M18 34H16V36H18V34Z" fill="white"></path>
    <path d="M20 34H18V36H20V34Z" fill="white"></path>
    <path d="M22 34H20V36H22V34Z" fill="white"></path>
    <path d="M24 34H22V36H24V34Z" fill="white"></path>
    <path d="M26 34H24V36H26V34Z" fill="white"></path>
    <path d="M28 34H26V36H28V34Z" fill="white"></path>
    <path d="M30 34H28V36H30V34Z" fill="white"></path>
    <path d="M32 34H30V36H32V34Z" fill="white"></path>
    <path d="M34 34H32V36H34V34Z" fill="white"></path>
    <path d="M36 34H34V36H36V34Z" fill="white"></path>
    <path d="M38 34H36V36H38V34Z" fill="white"></path>
    <path d="M40 34H38V36H40V34Z" fill="white"></path>
    <path d="M10 36H8V38H10V36Z" fill="white"></path>
    <path d="M12 36H10V38H12V36Z" fill="white"></path>
    <path d="M14 36H12V38H14V36Z" fill="white"></path>
    <path d="M16 36H14V38H16V36Z" fill="white"></path>
    <path d="M18 36H16V38H18V36Z" fill="white"></path>
    <path d="M20 36H18V38H20V36Z" fill="white"></path>
    <path d="M22 36H20V38H22V36Z" fill="white"></path>
    <path d="M24 36H22V38H24V36Z" fill="white"></path>
    <path d="M26 36H24V38H26V36Z" fill="white"></path>
    <path d="M28 36H26V38H28V36Z" fill="white"></path>
    <path d="M30 36H28V38H30V36Z" fill="white"></path>
    <path d="M32 36H30V38H32V36Z" fill="white"></path>
    <path d="M34 36H32V38H34V36Z" fill="white"></path>
    <path d="M36 36H34V38H36V36Z" fill="white"></path>
    <path d="M38 36H36V38H38V36Z" fill="white"></path>
    <path d="M40 36H38V38H40V36Z" fill="white"></path>
    <path d="M10 38H8V40H10V38Z" fill="white"></path>
    <path d="M12 38H10V40H12V38Z" fill="white"></path>
    <path d="M14 38H12V40H14V38Z" fill="white"></path>
    <path d="M16 38H14V40H16V38Z" fill="white"></path>
    <path d="M18 38H16V40H18V38Z" fill="white"></path>
    <path d="M20 38H18V40H20V38Z" fill="white"></path>
    <path d="M22 38H20V40H22V38Z" fill="white"></path>
    <path d="M24 38H22V40H24V38Z" fill="white"></path>
    <path d="M26 38H24V40H26V38Z" fill="white"></path>
    <path d="M28 38H26V40H28V38Z" fill="white"></path>
    <path d="M30 38H28V40H30V38Z" fill="white"></path>
    <path d="M32 38H30V40H32V38Z" fill="white"></path>
    <path d="M34 38H32V40H34V38Z" fill="white"></path>
    <path d="M36 38H34V40H36V38Z" fill="white"></path>
    <path d="M38 38H36V40H38V38Z" fill="white"></path>
    <path d="M40 38H38V40H40V38Z" fill="white"></path>
    <path d="M10 40H8V42H10V40Z" fill="white"></path>
    <path d="M12 40H10V42H12V40Z" fill="white"></path>
    <path d="M14 40H12V42H14V40Z" fill="white"></path>
    <path d="M16 40H14V42H16V40Z" fill="white"></path>
    <path d="M18 40H16V42H18V40Z" fill="white"></path>
    <path d="M20 40H18V42H20V40Z" fill="white"></path>
    <path d="M22 40H20V42H22V40Z" fill="white"></path>
    <path d="M24 40H22V42H24V40Z" fill="white"></path>
    <path d="M26 40H24V42H26V40Z" fill="white"></path>
    <path d="M28 40H26V42H28V40Z" fill="white"></path>
    <path d="M30 40H28V42H30V40Z" fill="white"></path>
    <path d="M32 40H30V42H32V40Z" fill="white"></path>
    <path d="M34 40H32V42H34V40Z" fill="white"></path>
    <path d="M36 40H34V42H36V40Z" fill="white"></path>
    <path d="M38 40H36V42H38V40Z" fill="white"></path>
    <path d="M40 40H38V42H40V40Z" fill="white"></path>
    <path d="M10 42H8V44H10V42Z" fill="white"></path>
    <path d="M12 42H10V44H12V42Z" fill="white"></path>
    <path d="M14 42H12V44H14V42Z" fill="white"></path>
    <path d="M16 42H14V44H16V42Z" fill="white"></path>
    <path d="M18 42H16V44H18V42Z" fill="white"></path>
    <path d="M20 42H18V44H20V42Z" fill="white"></path>
    <path d="M22 42H20V44H22V42Z" fill="white"></path>
    <path d="M24 42H22V44H24V42Z" fill="white"></path>
    <path d="M26 42H24V44H26V42Z" fill="white"></path>
    <path d="M28 42H26V44H28V42Z" fill="white"></path>
    <path d="M30 42H28V44H30V42Z" fill="white"></path>
    <path d="M32 42H30V44H32V42Z" fill="white"></path>
    <path d="M34 42H32V44H34V42Z" fill="white"></path>
    <path d="M36 42H34V44H36V42Z" fill="white"></path>
    <path d="M38 42H36V44H38V42Z" fill="white"></path>
    <path d="M40 42H38V44H40V42Z" fill="white"></path>
    <path d="M10 44H8V46H10V44Z" fill="white"></path>
    <path d="M12 44H10V46H12V44Z" fill="white"></path>
    <path d="M14 44H12V46H14V44Z" fill="white"></path>
    <path d="M16 44H14V46H16V44Z" fill="white"></path>
    <path d="M18 44H16V46H18V44Z" fill="white"></path>
    <path d="M20 44H18V46H20V44Z" fill="white"></path>
    <path d="M22 44H20V46H22V44Z" fill="white"></path>
    <path d="M24 44H22V46H24V44Z" fill="white"></path>
    <path d="M26 44H24V46H26V44Z" fill="white"></path>
    <path d="M28 44H26V46H28V44Z" fill="white"></path>
    <path d="M30 44H28V46H30V44Z" fill="white"></path>
    <path d="M32 44H30V46H32V44Z" fill="white"></path>
    <path d="M34 44H32V46H34V44Z" fill="white"></path>
    <path d="M36 44H34V46H36V44Z" fill="white"></path>
    <path d="M38 44H36V46H38V44Z" fill="white"></path>
    <path d="M40 44H38V46H40V44Z" fill="white"></path>
    <path d="M10 46H8V48H10V46Z" fill="white"></path>
    <path d="M12 46H10V48H12V46Z" fill="white"></path>
    <path d="M14 46H12V48H14V46Z" fill="white"></path>
    <path d="M16 46H14V48H16V46Z" fill="white"></path>
    <path d="M18 46H16V48H18V46Z" fill="white"></path>
    <path d="M20 46H18V48H20V46Z" fill="white"></path>
    <path d="M22 46H20V48H22V46Z" fill="white"></path>
    <path d="M24 46H22V48H24V46Z" fill="white"></path>
    <path d="M26 46H24V48H26V46Z" fill="white"></path>
    <path d="M28 46H26V48H28V46Z" fill="white"></path>
    <path d="M30 46H28V48H30V46Z" fill="white"></path>
    <path d="M32 46H30V48H32V46Z" fill="white"></path>
    <path d="M34 46H32V48H34V46Z" fill="white"></path>
    <path d="M36 46H34V48H36V46Z" fill="white"></path>
    <path d="M38 46H36V48H38V46Z" fill="white"></path>
    <path d="M40 46H38V48H40V46Z" fill="white"></path>
    <path d="M12 48H10V50H12V48Z" fill="white"></path>
    <path d="M14 48H12V50H14V48Z" fill="white"></path>
    <path d="M16 48H14V50H16V48Z" fill="white"></path>
    <path d="M18 48H16V50H18V48Z" fill="white"></path>
    <path d="M20 48H18V50H20V48Z" fill="white"></path>
    <path d="M22 48H20V50H22V48Z" fill="white"></path>
    <path d="M24 48H22V50H24V48Z" fill="white"></path>
    <path d="M26 48H24V50H26V48Z" fill="white"></path>
    <path d="M28 48H26V50H28V48Z" fill="white"></path>
    <path d="M30 48H28V50H30V48Z" fill="white"></path>
    <path d="M32 48H30V50H32V48Z" fill="white"></path>
    <path d="M34 48H32V50H34V48Z" fill="white"></path>
    <path d="M36 48H34V50H36V48Z" fill="white"></path>
    <path d="M38 48H36V50H38V48Z" fill="white"></path>
  </symbol>
  <symbol id="sword" fill="none" xmlns="http://www.w3.org/2000/svg" viewBox="0 0 44 44">
    <path d="M23.6923 20.3077V16.9231H27.0769V20.3077H23.6923ZM20.3189 23.6923H23.7036V20.3077H20.3189V23.6923ZM16.9231 27.0769H20.3077V23.6923H16.9231V27.0769ZM16.9231 27.0769H13.5385V23.6923H6.78048V27.0769H10.1651V30.4615H6.78048V33.8462H3.38462V37.2308H0V44H6.78048V40.6154H10.1651V37.2308H13.5497V33.8462H16.9343V37.2308H20.3189V30.4615H16.9343L16.9231 27.0769ZM33.8574 0V3.38462H40.6154V10.1538H44V0H33.8574ZM33.8574 3.38462H30.4728V6.76923H33.8574V3.38462ZM37.2308 13.5385H40.6154V10.1538H37.2308V13.5385ZM33.8574 16.9231H37.242V13.5385H33.8574V16.9231ZM30.4615 20.3077H33.8462V16.9231H30.4615V20.3077ZM27.0769 23.6923H30.4615V20.3077H27.0769V23.6923ZM23.6923 27.0769H27.0769V23.6923H23.6923V27.0769ZM20.3189 30.4615H23.7036V27.0769H20.3189V30.4615ZM30.4615 6.76923H27.0769V10.1538H30.4615V6.76923ZM27.0769 10.1538H23.6923V13.5385H27.0769V10.1538ZM23.6923 13.5385H20.3077V16.9231H23.6923V13.5385ZM20.3189 16.9231H16.9343V20.3077H20.3189V16.9231ZM16.9231 20.3077H13.5385V23.6923H16.9231V20.3077ZM23.6923 40.6154V37.2308H20.3077V40.6154H23.6923ZM3.38462 20.3077V23.6923H6.76923V20.3077H3.38462Z" fill="white"></path>
  </symbol>
</svg>