<?xml version="1.0" encoding="utf-8"?>
<!-- Generator: Adobe Illustrator 24.1.0, SVG Export Plug-In . SVG Version: 6.00 Build 0)  -->
<svg version="1.1" id="Calque_1" xmlns="http://www.w3.org/2000/svg" xmlns:xlink="http://www.w3.org/1999/xlink" x="0px" y="0px"
	 viewBox="0 0 48 46" style="enable-background:new 0 0 48 46;" xml:space="preserve">
<style type="text/css">
	.st0{fill:#FFFFFF;}
</style>
<path class="st0" d="M46,26v-2h-2v2h-2v2v2v2h-2v2h-2v-2h2v-2v-2v-2h2v-2h2v-2h2v-2v-2v-2h-2v-2v-2v-2h-2V8h-2V6h-2h-2V4h-2V2h-2V0
	h-2h-2h-2h-2h-2h-2h-2h-2v2h-2v2h-2v2h-2H8v2H6v2H4v2v2v2H2v2v2v2h2v2h2v2h2v2v2v2h2v2H8v-2H6v-2v-2v-2H4v-2H2v2H0v2v2v2v2v2v2h2v2
	h2v2h2v2h2v2h2h2h2h2h2h2h2h2h2h2h2h2h2h2h2h2v-2h2v-2h2v-2h2v-2h2v-2v-2v-2v-2v-2v-2H46z M18,32h2h2h2h2h2h2v2h-2h-2h-2h-2h-2h-2
	V32z M14,8h2V6h2h2V4h2h2h2h2v2h2h2v2h2v2h-2V8h-2h-2h-2h-2h-2h-2h-2h-2v2h-2V8z M36,34v2v2h-2h-2v-2v-2v-2v-2v-2h2h2v2v2V34z
	 M12,32v-2v-2h2h2v2v2v2v2v2h-2h-2v-2v-2V32z"/>
</svg>
