<?xml version="1.0" encoding="utf-8"?>
<!-- Generator: Adobe Illustrator 24.1.0, SVG Export Plug-In . SVG Version: 6.00 Build 0)  -->
<svg version="1.1" id="Calque_1" xmlns="http://www.w3.org/2000/svg" xmlns:xlink="http://www.w3.org/1999/xlink" x="0px" y="0px"
	 viewBox="0 0 55 46" style="enable-background:new 0 0 55 46;" xml:space="preserve">
<style type="text/css">
	.st0{fill:#FFFFFF;}
</style>
<g>
	<path class="st0" d="M52.7,0h-2.3h-2.3v2.3v2.3h-2.3v2.3h-2.3v2.3h-2.3V6.9H39V4.6h-2.3h-2.3h-2.3v2.3h2.3h2.3v2.3h-2.3v2.3h-2.3
		v2.3h-2.3v2.3v2.3h2.3v2.3h2.3V23h2.3v2.3H39h2.3V23h2.3v-2.3h2.3v-2.3h2.3v2.3V23h2.3v-2.3v-2.3v-2.3h-2.3v-2.3h-2.3v-2.3h2.3V9.2
		h2.3V6.9h2.3H55V4.6V2.3V0H52.7z M43.5,13.8h-2.3v2.3H39v2.3h-2.3v-2.3H39v-2.3h2.3v-2.3h2.3V13.8z M52.7,4.6h-2.3V2.3h2.3V4.6z"/>
	<path class="st0" d="M34.4,23h-2.3v-2.3h-2.3v-2.3h-2.3v-2.3h-2.3v-2.3h-2.3v-2.3h-2.3V9.2h-2.3V6.9h2.3h2.3V4.6h-2.3h-2.3H16v2.3
		h-2.3v2.3h-2.3V6.9H9.2V4.6H6.9V2.3V0H4.6H2.3H0v2.3v2.3v2.3h2.3h2.3v2.3h2.3v2.3h2.3v2.3H6.9v2.3H4.6v2.3v2.3V23h2.3v-2.3v-2.3
		h2.3v2.3h2.3V23h2.3v2.3H16v2.3h2.3v2.3h2.3v2.3h2.3v2.3h2.3v2.3h2.3v2.3h2.3v2.3h2.3v2.3h2.3V46h2.3H39h2.3h2.3h2.3v-2.3v-2.3
		v-2.3v-2.3v-2.3h-2.3v-2.3h-2.3v-2.3H39v-2.3h-2.3v-2.3h-2.3V23z M32.1,34.5v-2.3h2.3v2.3H32.1z M2.3,4.6V2.3h2.3v2.3H2.3z
		 M11.5,11.5h2.3v2.3H16v2.3h2.3v2.3h2.3v2.3h-2.3v-2.3H16v-2.3h-2.3v-2.3h-2.3V11.5z M43.5,43.7h-2.3v-2.3H39v-2.3h-2.3v-2.3H39
		v2.3h2.3v2.3h2.3V43.7z"/>
	<path class="st0" d="M22.9,34.5h-2.3v-2.3h-2.3v-2.3H16h-2.3v2.3h-2.3v2.3H9.2v2.3v2.3v2.3v2.3V46h2.3h2.3H16h2.3h2.3v-2.3h2.3
		v-2.3h2.3v-2.3v-2.3h-2.3V34.5z M11.5,43.7v-2.3h2.3v-2.3H16v-2.3h2.3v2.3H16v2.3h-2.3v2.3H11.5z"/>
</g>
</svg>
