<?xml version="1.0" encoding="utf-8"?>
<!-- Generator: Adobe Illustrator 24.1.0, SVG Export Plug-In . SVG Version: 6.00 Build 0)  -->
<svg version="1.1" id="Calque_1" xmlns="http://www.w3.org/2000/svg" xmlns:xlink="http://www.w3.org/1999/xlink" x="0px" y="0px"
	 viewBox="0 0 46 42" style="enable-background:new 0 0 46 42;" xml:space="preserve">
<style type="text/css">
	.st0{fill:#FFFFFF;}
</style>
<g>
	<polygon class="st0" points="14.2,17.5 17.7,17.5 21.2,17.5 21.2,14 21.2,10.5 21.2,7 17.7,7 17.7,3.5 17.7,0 14.2,0 14.2,3.5 
		10.6,3.5 10.6,7 10.6,10.5 10.6,14 14.2,14 	"/>
	<polygon class="st0" points="31.8,17.5 31.8,14 35.4,14 35.4,10.5 35.4,7 35.4,3.5 31.8,3.5 31.8,0 28.3,0 28.3,3.5 28.3,7 24.8,7 
		24.8,10.5 24.8,14 24.8,17.5 28.3,17.5 	"/>
	<polygon class="st0" points="42.5,14 42.5,10.5 38.9,10.5 38.9,14 38.9,17.5 35.4,17.5 35.4,21 38.9,21 38.9,24.5 42.5,24.5 
		42.5,21 46,21 46,17.5 46,14 	"/>
	<polygon class="st0" points="7.1,24.5 7.1,21 10.6,21 10.6,17.5 7.1,17.5 7.1,14 7.1,10.5 3.5,10.5 3.5,14 0,14 0,17.5 0,21 
		3.5,21 3.5,24.5 	"/>
	<polygon class="st0" points="35.4,24.5 31.8,24.5 31.8,21 28.3,21 24.8,21 21.2,21 17.7,21 14.2,21 14.2,24.5 10.6,24.5 10.6,28 
		7.1,28 7.1,31.5 7.1,35 7.1,38.5 10.6,38.5 10.6,42 14.2,42 17.7,42 21.2,42 21.2,38.5 24.8,38.5 24.8,42 28.3,42 31.8,42 35.4,42 
		35.4,38.5 38.9,38.5 38.9,35 38.9,31.5 38.9,28 35.4,28 	"/>
</g>
</svg>
