<?xml version="1.0" encoding="utf-8"?>
<!-- Generator: Adobe Illustrator 24.1.0, SVG Export Plug-In . SVG Version: 6.00 Build 0)  -->
<svg version="1.1" id="Calque_1" xmlns="http://www.w3.org/2000/svg" xmlns:xlink="http://www.w3.org/1999/xlink" x="0px" y="0px"
	 viewBox="0 0 52 58" style="enable-background:new 0 0 52 58;" xml:space="preserve">
<style type="text/css">
	.st0{fill:#FFFFFF;}
</style>
<g>
	<polygon class="st0" points="22,6 24,6 24,4 26,4 28,4 28,6 30,6 32,6 34,6 34,4 32,4 30,4 30,2 28,2 28,0 26,0 24,0 24,2 22,2 
		22,4 20,4 18,4 18,6 20,6 	"/>
	<polygon class="st0" points="18,8 18,6 16,6 14,6 14,8 16,8 	"/>
	<polygon class="st0" points="36,8 38,8 38,6 36,6 34,6 34,8 	"/>
	<rect x="12" y="8" class="st0" width="2" height="2"/>
	<rect x="38" y="8" class="st0" width="2" height="2"/>
	<rect x="8" y="12" class="st0" width="2" height="2"/>
	<rect x="42" y="12" class="st0" width="2" height="2"/>
	<polygon class="st0" points="46,14 44,14 44,16 44,18 46,18 46,16 	"/>
	<polygon class="st0" points="8,16 8,14 6,14 6,16 6,18 8,18 	"/>
	<polygon class="st0" points="50,24 50,22 48,22 48,20 48,18 46,18 46,20 46,22 46,24 48,24 48,26 48,28 46,28 46,30 46,32 46,34 
		48,34 48,32 48,30 50,30 50,28 52,28 52,26 52,24 	"/>
	<polygon class="st0" points="6,30 6,28 4,28 4,26 4,24 6,24 6,22 6,20 6,18 4,18 4,20 4,22 2,22 2,24 0,24 0,26 0,28 2,28 2,30 
		4,30 4,32 4,34 6,34 6,32 	"/>
	<polygon class="st0" points="8,34 6,34 6,36 6,38 8,38 8,36 	"/>
	<polygon class="st0" points="44,36 44,38 46,38 46,36 46,34 44,34 	"/>
	<path class="st0" d="M22,38h2h2h2h2h2v-2h2v-2h2v-2h2v-2v-2v-2v-2v-2v-2h-2v-2h-2v-2h-2v-2h-2h-2h-2h-2h-2h-2v2h-2v2h-2v2h-2v2v2v2
		v2v2v2h2v2h2v2h2v2H22z M18,26h2h2v2h-2h-2V26z M34,28h-2h-2v-2h2h2V28z"/>
	<rect x="8" y="38" class="st0" width="2" height="2"/>
	<rect x="42" y="38" class="st0" width="2" height="2"/>
	<polygon class="st0" points="40,44 40,42 38,42 36,42 36,40 34,40 32,40 30,40 28,40 26,40 24,40 22,40 20,40 18,40 16,40 16,42 
		14,42 12,42 12,44 12,46 10,46 10,48 10,50 10,52 10,54 10,56 10,58 12,58 14,58 16,58 18,58 20,58 22,58 24,58 26,58 28,58 30,58 
		32,58 34,58 36,58 38,58 40,58 42,58 42,56 42,54 42,52 42,50 42,48 42,46 40,46 	"/>
</g>
</svg>
