<?xml version="1.0" encoding="utf-8"?>
<!-- Generator: Adobe Illustrator 24.1.0, SVG Export Plug-In . SVG Version: 6.00 Build 0)  -->
<svg version="1.1" id="Calque_1" xmlns="http://www.w3.org/2000/svg" xmlns:xlink="http://www.w3.org/1999/xlink" x="0px" y="0px"
	 viewBox="0 0 46 38" style="enable-background:new 0 0 46 38;" xml:space="preserve">
<style type="text/css">
	.st0{display:none;}
	.st1{display:inline;}
	.st2{fill:#FFFFFF;}
</style>
<g id="skull" class="st0">
	<path id="Vector" class="st1" d="M6,0H4v2h2V0z"/>
	<path id="Vector_2" class="st1" d="M8,0H6v2h2V0z"/>
	<path id="Vector_3" class="st1" d="M40,0h-2v2h2V0z"/>
	<path id="Vector_4" class="st1" d="M42,0h-2v2h2V0z"/>
	<path id="Vector_5" class="st1" d="M6,2H4v2h2V2z"/>
	<path id="Vector_6" class="st1" d="M8,2H6v2h2V2z"/>
	<path id="Vector_7" class="st1" d="M40,2h-2v2h2V2z"/>
	<path id="Vector_8" class="st1" d="M42,2h-2v2h2V2z"/>
	<path id="Vector_9" class="st1" d="M2,4H0v2h2V4z"/>
	<path id="Vector_10" class="st1" d="M4,4H2v2h2V4z"/>
	<path id="Vector_11" class="st1" d="M6,4H4v2h2V4z"/>
	<path id="Vector_12" class="st1" d="M8,4H6v2h2V4z"/>
	<path id="Vector_13" class="st1" d="M40,4h-2v2h2V4z"/>
	<path id="Vector_14" class="st1" d="M42,4h-2v2h2V4z"/>
	<path id="Vector_15" class="st1" d="M44,4h-2v2h2V4z"/>
	<path id="Vector_16" class="st1" d="M46,4h-2v2h2V4z"/>
	<path id="Vector_17" class="st1" d="M2,6H0v2h2V6z"/>
	<path id="Vector_18" class="st1" d="M4,6H2v2h2V6z"/>
	<path id="Vector_19" class="st1" d="M6,6H4v2h2V6z"/>
	<path id="Vector_20" class="st1" d="M8,6H6v2h2V6z"/>
	<path id="Vector_21" class="st1" d="M14,6h-2v2h2V6z"/>
	<path id="Vector_22" class="st1" d="M16,6h-2v2h2V6z"/>
	<path id="Vector_23" class="st1" d="M18,6h-2v2h2V6z"/>
	<path id="Vector_24" class="st1" d="M20,6h-2v2h2V6z"/>
	<path id="Vector_25" class="st1" d="M22,6h-2v2h2V6z"/>
	<path id="Vector_26" class="st1" d="M24,6h-2v2h2V6z"/>
	<path id="Vector_27" class="st1" d="M26,6h-2v2h2V6z"/>
	<path id="Vector_28" class="st1" d="M28,6h-2v2h2V6z"/>
	<path id="Vector_29" class="st1" d="M30,6h-2v2h2V6z"/>
	<path id="Vector_30" class="st1" d="M32,6h-2v2h2V6z"/>
	<path id="Vector_31" class="st1" d="M34,6h-2v2h2V6z"/>
	<path id="Vector_32" class="st1" d="M40,6h-2v2h2V6z"/>
	<path id="Vector_33" class="st1" d="M42,6h-2v2h2V6z"/>
	<path id="Vector_34" class="st1" d="M44,6h-2v2h2V6z"/>
	<path id="Vector_35" class="st1" d="M46,6h-2v2h2V6z"/>
	<path id="Vector_36" class="st1" d="M14,8h-2v2h2V8z"/>
	<path id="Vector_37" class="st1" d="M16,8h-2v2h2V8z"/>
	<path id="Vector_38" class="st1" d="M18,8h-2v2h2V8z"/>
	<path id="Vector_39" class="st1" d="M20,8h-2v2h2V8z"/>
	<path id="Vector_40" class="st1" d="M22,8h-2v2h2V8z"/>
	<path id="Vector_41" class="st1" d="M24,8h-2v2h2V8z"/>
	<path id="Vector_42" class="st1" d="M26,8h-2v2h2V8z"/>
	<path id="Vector_43" class="st1" d="M28,8h-2v2h2V8z"/>
	<path id="Vector_44" class="st1" d="M30,8h-2v2h2V8z"/>
	<path id="Vector_45" class="st1" d="M32,8h-2v2h2V8z"/>
	<path id="Vector_46" class="st1" d="M34,8h-2v2h2V8z"/>
	<path id="Vector_47" class="st1" d="M10,10H8v2h2V10z"/>
	<path id="Vector_48" class="st1" d="M12,10h-2v2h2V10z"/>
	<path id="Vector_49" class="st1" d="M14,10h-2v2h2V10z"/>
	<path id="Vector_50" class="st1" d="M16,10h-2v2h2V10z"/>
	<path id="Vector_51" class="st1" d="M18,10h-2v2h2V10z"/>
	<path id="Vector_52" class="st1" d="M20,10h-2v2h2V10z"/>
	<path id="Vector_53" class="st1" d="M22,10h-2v2h2V10z"/>
	<path id="Vector_54" class="st1" d="M24,10h-2v2h2V10z"/>
	<path id="Vector_55" class="st1" d="M26,10h-2v2h2V10z"/>
	<path id="Vector_56" class="st1" d="M28,10h-2v2h2V10z"/>
	<path id="Vector_57" class="st1" d="M30,10h-2v2h2V10z"/>
	<path id="Vector_58" class="st1" d="M32,10h-2v2h2V10z"/>
	<path id="Vector_59" class="st1" d="M34,10h-2v2h2V10z"/>
	<path id="Vector_60" class="st1" d="M36,10h-2v2h2V10z"/>
	<path id="Vector_61" class="st1" d="M38,10h-2v2h2V10z"/>
	<path id="Vector_62" class="st1" d="M10,12H8v2h2V12z"/>
	<path id="Vector_63" class="st1" d="M12,12h-2v2h2V12z"/>
	<path id="Vector_64" class="st1" d="M14,12h-2v2h2V12z"/>
	<path id="Vector_65" class="st1" d="M16,12h-2v2h2V12z"/>
	<path id="Vector_66" class="st1" d="M18,12h-2v2h2V12z"/>
	<path id="Vector_67" class="st1" d="M20,12h-2v2h2V12z"/>
	<path id="Vector_68" class="st1" d="M22,12h-2v2h2V12z"/>
	<path id="Vector_69" class="st1" d="M24,12h-2v2h2V12z"/>
	<path id="Vector_70" class="st1" d="M26,12h-2v2h2V12z"/>
	<path id="Vector_71" class="st1" d="M28,12h-2v2h2V12z"/>
	<path id="Vector_72" class="st1" d="M30,12h-2v2h2V12z"/>
	<path id="Vector_73" class="st1" d="M32,12h-2v2h2V12z"/>
	<path id="Vector_74" class="st1" d="M34,12h-2v2h2V12z"/>
	<path id="Vector_75" class="st1" d="M36,12h-2v2h2V12z"/>
	<path id="Vector_76" class="st1" d="M38,12h-2v2h2V12z"/>
	<path id="Vector_77" class="st1" d="M10,14H8v2h2V14z"/>
	<path id="Vector_78" class="st1" d="M12,14h-2v2h2V14z"/>
	<path id="Vector_79" class="st1" d="M14,14h-2v2h2V14z"/>
	<path id="Vector_80" class="st1" d="M16,14h-2v2h2V14z"/>
	<path id="Vector_81" class="st1" d="M18,14h-2v2h2V14z"/>
	<path id="Vector_82" class="st1" d="M20,14h-2v2h2V14z"/>
	<path id="Vector_83" class="st1" d="M22,14h-2v2h2V14z"/>
	<path id="Vector_84" class="st1" d="M24,14h-2v2h2V14z"/>
	<path id="Vector_85" class="st1" d="M26,14h-2v2h2V14z"/>
	<path id="Vector_86" class="st1" d="M28,14h-2v2h2V14z"/>
	<path id="Vector_87" class="st1" d="M30,14h-2v2h2V14z"/>
	<path id="Vector_88" class="st1" d="M32,14h-2v2h2V14z"/>
	<path id="Vector_89" class="st1" d="M34,14h-2v2h2V14z"/>
	<path id="Vector_90" class="st1" d="M36,14h-2v2h2V14z"/>
	<path id="Vector_91" class="st1" d="M38,14h-2v2h2V14z"/>
	<path id="Vector_92" class="st1" d="M10,16H8v2h2V16z"/>
	<path id="Vector_93" class="st1" d="M12,16h-2v2h2V16z"/>
	<path id="Vector_94" class="st1" d="M14,16h-2v2h2V16z"/>
	<path id="Vector_95" class="st1" d="M16,16h-2v2h2V16z"/>
	<path id="Vector_96" class="st1" d="M22,16h-2v2h2V16z"/>
	<path id="Vector_97" class="st1" d="M24,16h-2v2h2V16z"/>
	<path id="Vector_98" class="st1" d="M26,16h-2v2h2V16z"/>
	<path id="Vector_99" class="st1" d="M32,16h-2v2h2V16z"/>
	<path id="Vector_100" class="st1" d="M34,16h-2v2h2V16z"/>
	<path id="Vector_101" class="st1" d="M36,16h-2v2h2V16z"/>
	<path id="Vector_102" class="st1" d="M38,16h-2v2h2V16z"/>
	<path id="Vector_103" class="st1" d="M10,18H8v2h2V18z"/>
	<path id="Vector_104" class="st1" d="M12,18h-2v2h2V18z"/>
	<path id="Vector_105" class="st1" d="M22,18h-2v2h2V18z"/>
	<path id="Vector_106" class="st1" d="M24,18h-2v2h2V18z"/>
	<path id="Vector_107" class="st1" d="M26,18h-2v2h2V18z"/>
	<path id="Vector_108" class="st1" d="M36,18h-2v2h2V18z"/>
	<path id="Vector_109" class="st1" d="M38,18h-2v2h2V18z"/>
	<path id="Vector_110" class="st1" d="M10,20H8v2h2V20z"/>
	<path id="Vector_111" class="st1" d="M12,20h-2v2h2V20z"/>
	<path id="Vector_112" class="st1" d="M22,20h-2v2h2V20z"/>
	<path id="Vector_113" class="st1" d="M24,20h-2v2h2V20z"/>
	<path id="Vector_114" class="st1" d="M26,20h-2v2h2V20z"/>
	<path id="Vector_115" class="st1" d="M36,20h-2v2h2V20z"/>
	<path id="Vector_116" class="st1" d="M38,20h-2v2h2V20z"/>
	<path id="Vector_117" class="st1" d="M10,22H8v2h2V22z"/>
	<path id="Vector_118" class="st1" d="M12,22h-2v2h2V22z"/>
	<path id="Vector_119" class="st1" d="M14,22h-2v2h2V22z"/>
	<path id="Vector_120" class="st1" d="M16,22h-2v2h2V22z"/>
	<path id="Vector_121" class="st1" d="M18,22h-2v2h2V22z"/>
	<path id="Vector_122" class="st1" d="M20,22h-2v2h2V22z"/>
	<path id="Vector_123" class="st1" d="M22,22h-2v2h2V22z"/>
	<path id="Vector_124" class="st1" d="M24,22h-2v2h2V22z"/>
	<path id="Vector_125" class="st1" d="M26,22h-2v2h2V22z"/>
	<path id="Vector_126" class="st1" d="M28,22h-2v2h2V22z"/>
	<path id="Vector_127" class="st1" d="M30,22h-2v2h2V22z"/>
	<path id="Vector_128" class="st1" d="M32,22h-2v2h2V22z"/>
	<path id="Vector_129" class="st1" d="M34,22h-2v2h2V22z"/>
	<path id="Vector_130" class="st1" d="M36,22h-2v2h2V22z"/>
	<path id="Vector_131" class="st1" d="M38,22h-2v2h2V22z"/>
	<path id="Vector_132" class="st1" d="M10,24H8v2h2V24z"/>
	<path id="Vector_133" class="st1" d="M12,24h-2v2h2V24z"/>
	<path id="Vector_134" class="st1" d="M14,24h-2v2h2V24z"/>
	<path id="Vector_135" class="st1" d="M16,24h-2v2h2V24z"/>
	<path id="Vector_136" class="st1" d="M18,24h-2v2h2V24z"/>
	<path id="Vector_137" class="st1" d="M20,24h-2v2h2V24z"/>
	<path id="Vector_138" class="st1" d="M22,24h-2v2h2V24z"/>
	<path id="Vector_139" class="st1" d="M24,24h-2v2h2V24z"/>
	<path id="Vector_140" class="st1" d="M26,24h-2v2h2V24z"/>
	<path id="Vector_141" class="st1" d="M28,24h-2v2h2V24z"/>
	<path id="Vector_142" class="st1" d="M30,24h-2v2h2V24z"/>
	<path id="Vector_143" class="st1" d="M32,24h-2v2h2V24z"/>
	<path id="Vector_144" class="st1" d="M34,24h-2v2h2V24z"/>
	<path id="Vector_145" class="st1" d="M36,24h-2v2h2V24z"/>
	<path id="Vector_146" class="st1" d="M38,24h-2v2h2V24z"/>
	<path id="Vector_147" class="st1" d="M14,26h-2v2h2V26z"/>
	<path id="Vector_148" class="st1" d="M16,26h-2v2h2V26z"/>
	<path id="Vector_149" class="st1" d="M18,26h-2v2h2V26z"/>
	<path id="Vector_150" class="st1" d="M20,26h-2v2h2V26z"/>
	<path id="Vector_151" class="st1" d="M22,26h-2v2h2V26z"/>
	<path id="Vector_152" class="st1" d="M24,26h-2v2h2V26z"/>
	<path id="Vector_153" class="st1" d="M26,26h-2v2h2V26z"/>
	<path id="Vector_154" class="st1" d="M28,26h-2v2h2V26z"/>
	<path id="Vector_155" class="st1" d="M30,26h-2v2h2V26z"/>
	<path id="Vector_156" class="st1" d="M32,26h-2v2h2V26z"/>
	<path id="Vector_157" class="st1" d="M34,26h-2v2h2V26z"/>
	<path id="Vector_158" class="st1" d="M14,28h-2v2h2V28z"/>
	<path id="Vector_159" class="st1" d="M16,28h-2v2h2V28z"/>
	<path id="Vector_160" class="st1" d="M18,28h-2v2h2V28z"/>
	<path id="Vector_161" class="st1" d="M20,28h-2v2h2V28z"/>
	<path id="Vector_162" class="st1" d="M22,28h-2v2h2V28z"/>
	<path id="Vector_163" class="st1" d="M24,28h-2v2h2V28z"/>
	<path id="Vector_164" class="st1" d="M26,28h-2v2h2V28z"/>
	<path id="Vector_165" class="st1" d="M28,28h-2v2h2V28z"/>
	<path id="Vector_166" class="st1" d="M30,28h-2v2h2V28z"/>
	<path id="Vector_167" class="st1" d="M32,28h-2v2h2V28z"/>
	<path id="Vector_168" class="st1" d="M34,28h-2v2h2V28z"/>
	<path id="Vector_169" class="st1" d="M2,30H0v2h2V30z"/>
	<path id="Vector_170" class="st1" d="M4,30H2v2h2V30z"/>
	<path id="Vector_171" class="st1" d="M6,30H4v2h2V30z"/>
	<path id="Vector_172" class="st1" d="M8,30H6v2h2V30z"/>
	<path id="Vector_173" class="st1" d="M14,30h-2v2h2V30z"/>
	<path id="Vector_174" class="st1" d="M16,30h-2v2h2V30z"/>
	<path id="Vector_175" class="st1" d="M18,30h-2v2h2V30z"/>
	<path id="Vector_176" class="st1" d="M22,30h-2v2h2V30z"/>
	<path id="Vector_177" class="st1" d="M24,30h-2v2h2V30z"/>
	<path id="Vector_178" class="st1" d="M26,30h-2v2h2V30z"/>
	<path id="Vector_179" class="st1" d="M30,30h-2v2h2V30z"/>
	<path id="Vector_180" class="st1" d="M32,30h-2v2h2V30z"/>
	<path id="Vector_181" class="st1" d="M34,30h-2v2h2V30z"/>
	<path id="Vector_182" class="st1" d="M40,30h-2v2h2V30z"/>
	<path id="Vector_183" class="st1" d="M42,30h-2v2h2V30z"/>
	<path id="Vector_184" class="st1" d="M44,30h-2v2h2V30z"/>
	<path id="Vector_185" class="st1" d="M46,30h-2v2h2V30z"/>
	<path id="Vector_186" class="st1" d="M2,32H0v2h2V32z"/>
	<path id="Vector_187" class="st1" d="M4,32H2v2h2V32z"/>
	<path id="Vector_188" class="st1" d="M6,32H4v2h2V32z"/>
	<path id="Vector_189" class="st1" d="M8,32H6v2h2V32z"/>
	<path id="Vector_190" class="st1" d="M14,32h-2v2h2V32z"/>
	<path id="Vector_191" class="st1" d="M16,32h-2v2h2V32z"/>
	<path id="Vector_192" class="st1" d="M18,32h-2v2h2V32z"/>
	<path id="Vector_193" class="st1" d="M22,32h-2v2h2V32z"/>
	<path id="Vector_194" class="st1" d="M24,32h-2v2h2V32z"/>
	<path id="Vector_195" class="st1" d="M26,32h-2v2h2V32z"/>
	<path id="Vector_196" class="st1" d="M30,32h-2v2h2V32z"/>
	<path id="Vector_197" class="st1" d="M32,32h-2v2h2V32z"/>
	<path id="Vector_198" class="st1" d="M34,32h-2v2h2V32z"/>
	<path id="Vector_199" class="st1" d="M40,32h-2v2h2V32z"/>
	<path id="Vector_200" class="st1" d="M42,32h-2v2h2V32z"/>
	<path id="Vector_201" class="st1" d="M44,32h-2v2h2V32z"/>
	<path id="Vector_202" class="st1" d="M46,32h-2v2h2V32z"/>
	<path id="Vector_203" class="st1" d="M6,34H4v2h2V34z"/>
	<path id="Vector_204" class="st1" d="M8,34H6v2h2V34z"/>
	<path id="Vector_205" class="st1" d="M40,34h-2v2h2V34z"/>
	<path id="Vector_206" class="st1" d="M42,34h-2v2h2V34z"/>
	<path id="Vector_207" class="st1" d="M6,36H4v2h2V36z"/>
	<path id="Vector_208" class="st1" d="M8,36H6v2h2V36z"/>
	<path id="Vector_209" class="st1" d="M40,36h-2v2h2V36z"/>
	<path id="Vector_210" class="st1" d="M42,36h-2v2h2V36z"/>
</g>
<polygon class="st2" points="4,4 4,0 8,0 8,8 0,8 0,4 "/>
<polygon class="st2" points="42,4 46,4 46,8 38,8 38,0 42,0 "/>
<polygon class="st2" points="42,34 42,38 38,38 38,30 46,30 46,34 "/>
<polygon class="st2" points="4,34 0,34 0,30 8,30 8,38 4,38 "/>
<g id="XMLID_1_">
	<path class="st2" d="M38,10v16h-4v8h-6v-4h-2v4h-6v-4h-2v4h-6v-8H8V10h4V6h22v4H38z M34,22v-4h-4v-2h-4v6H34z M20,22v-6h-4v2h-4v4
		H20z"/>
</g>
</svg>
